<svg xmlns="http://www.w3.org/2000/svg" viewBox="0 0 64 64" fill="none">
  <path d="M32 58C46.3594 58 58 46.3594 58 32C58 17.6406 46.3594 6 32 6C17.6406 6 6 17.6406 6 32C6 46.3594 17.6406 58 32 58Z" fill="#DD5144"/>
  <ellipse cx="22" cy="18" rx="5" ry="6" fill="#DD5144"/>
  <ellipse cx="42" cy="18" rx="5" ry="6" fill="#DD5144"/>
  <circle cx="24" cy="28" r="2.5" fill="#2D2D2D"/>
  <circle cx="40" cy="28" r="2.5" fill="#2D2D2D"/>
  <path d="M32 38C35 38 37 36 37 36C37 36 35 38 32 38C29 38 27 36 27 36C27 36 29 38 32 38Z" fill="#2D2D2D"/>
  <ellipse cx="24" cy="32" rx="2" ry="3" fill="#FFB3AA" opacity="0.6"/>
  <ellipse cx="40" cy="32" rx="2" ry="3" fill="#FFB3AA" opacity="0.6"/>
  <path d="M27 36C27 36 29 38 32 38C35 38 37 36 37 36" stroke="#2D2D2D" stroke-width="1.5" stroke-linecap="round" fill="none"/>
</svg>
