<svg xmlns="http://www.w3.org/2000/svg" viewBox="0 0 24 24" fill="none">
  <path d="M8 6.5C8 5.67157 8.67157 5 9.5 5C10.3284 5 11 5.67157 11 6.5C11 7.32843 10.3284 8 9.5 8C8.67157 8 8 7.32843 8 6.5Z" fill="#D74A3D"/>
  <path d="M13 6.5C13 5.67157 13.6716 5 14.5 5C15.3284 5 16 5.67157 16 6.5C16 7.32843 15.3284 8 14.5 8C13.6716 8 13 7.32843 13 6.5Z" fill="#D74A3D"/>
  <path d="M12 20C16.4183 20 20 16.4183 20 12C20 7.58172 16.4183 4 12 4C7.58172 4 4 7.58172 4 12C4 16.4183 7.58172 20 12 20Z" fill="#D74A3D"/>
  <circle cx="9" cy="12" r="1" fill="white"/>
  <circle cx="15" cy="12" r="1" fill="white"/>
  <path d="M9 15C9 15 10.5 16 12 16C13.5 16 15 15 15 15" stroke="white" stroke-width="1.5" stroke-linecap="round"/>
</svg>
